<svg width="18" height="19" viewBox="0 0 18 19" fill="none" xmlns="http://www.w3.org/2000/svg">
<path d="M3.75 15.5C3.75 15.8978 3.90804 16.2794 4.18934 16.5607C4.47064 16.842 4.85218 17 5.25 17H12.75C13.1478 17 13.5294 16.842 13.8107 16.5607C14.092 16.2794 14.25 15.8978 14.25 15.5V6.5H15.75V5H12.75V3.5C12.75 3.10218 12.592 2.72064 12.3107 2.43934C12.0294 2.15804 11.6478 2 11.25 2H6.75C6.35218 2 5.97064 2.15804 5.68934 2.43934C5.40804 2.72064 5.25 3.10218 5.25 3.5V5H2.25V6.5H3.75V15.5ZM6.75 3.5H11.25V5H6.75V3.5ZM6 6.5H12.75V15.5H5.25V6.5H6Z" fill="#0A151E"/>
<path d="M6.75 8H8.25V14H6.75V8ZM9.75 8H11.25V14H9.75V8Z" fill="#0A151E"/>
</svg>
