<svg width="15" height="15" viewBox="0 0 15 15" fill="none" xmlns="http://www.w3.org/2000/svg">
<path d="M10.3555 2.93093L11.944 4.51868M11.377 1.53218L7.08175 5.82743C6.85982 6.04906 6.70846 6.33142 6.64675 6.63893L6.25 8.62493L8.236 8.22743C8.5435 8.16593 8.8255 8.01518 9.0475 7.79318L13.3428 3.49793C13.4718 3.36886 13.5742 3.21563 13.6441 3.04698C13.7139 2.87834 13.7499 2.69759 13.7499 2.51506C13.7499 2.33252 13.7139 2.15177 13.6441 1.98313C13.5742 1.81449 13.4718 1.66125 13.3428 1.53218C13.2137 1.40311 13.0604 1.30072 12.8918 1.23087C12.7232 1.16101 12.5424 1.12506 12.3599 1.12506C12.1773 1.12506 11.9966 1.16101 11.8279 1.23087C11.6593 1.30072 11.5061 1.40311 11.377 1.53218V1.53218Z" stroke="#A5ACAD" stroke-linecap="round" stroke-linejoin="round"/>
<path d="M12.25 10.1249V12.3749C12.25 12.7728 12.092 13.1543 11.8107 13.4356C11.5294 13.7169 11.1478 13.8749 10.75 13.8749H2.5C2.10218 13.8749 1.72064 13.7169 1.43934 13.4356C1.15804 13.1543 1 12.7728 1 12.3749V4.12494C1 3.72711 1.15804 3.34558 1.43934 3.06428C1.72064 2.78297 2.10218 2.62494 2.5 2.62494H4.75" stroke="#A5ACAD" stroke-linecap="round" stroke-linejoin="round"/>
</svg>
